<svg xmlns="http://www.w3.org/2000/svg" viewBox="0 0 1125 2436.2284"><defs><style>.cls-1{fill:#fff;}.cls-10,.cls-11,.cls-12,.cls-2,.cls-3,.cls-7,.cls-8,.cls-9{fill:none;}.cls-10,.cls-11,.cls-12,.cls-2,.cls-3,.cls-4,.cls-7,.cls-8,.cls-9{stroke:#000;stroke-miterlimit:10;}.cls-2{stroke-width:3px;}.cls-3,.cls-4{stroke-width:0.6993px;}.cls-5{font-size:131.6103px;}.cls-13,.cls-14,.cls-15,.cls-5,.cls-6{font-family:3270SemiNarrowNerdFontCo-Medium, "3270SemiNarrow NF";font-weight:500;}.cls-6{font-size:30.7997px;}.cls-7{stroke-width:0.6871px;}.cls-8{stroke-width:0.7135px;}.cls-9{stroke-width:0.8942px;}.cls-10{stroke-width:0.9733px;}.cls-12{stroke-width:0.6px;}.cls-13{font-size:54.4415px;}.cls-14{font-size:39.5583px;}.cls-15{font-size:188.5914px;}</style></defs><g id="Layer_2" data-name="Layer 2"><rect class="cls-1" y="0.2284" width="1125" height="2436"/></g><g id="Layer_1" data-name="Layer 1"><line class="cls-2" x1="254.5" y1="470.7284" x2="254.5" y2="1040.7284"/><line class="cls-2" x1="870.5" y1="470.7284" x2="870.5" y2="1040.7284"/><line class="cls-2" x1="870.5" y1="470.7284" x2="254.5" y2="470.7284"/><line class="cls-2" x1="226.5001" y1="446.7284" x2="226.0001" y2="1041.127"/><line class="cls-2" x1="895.5006" y1="446.7283" x2="895.5003" y2="1040.7284"/><line class="cls-2" x1="895.5" y1="446.7283" x2="226.5" y2="446.7359"/><line class="cls-2" x1="254.5" y1="1040.7284" x2="227" y2="1040.7284"/><line class="cls-2" x1="870.5" y1="1040.7284" x2="895.5" y2="1040.7284"/><line class="cls-2" x1="351" y1="584.2284" x2="351" y2="990.127"/><line class="cls-2" x1="773.973" y1="584.2284" x2="773.973" y2="990.127"/><line class="cls-2" x1="773.973" y1="584.2284" x2="351" y2="584.2284"/><line class="cls-2" x1="254.5" y1="470.7284" x2="350.5" y2="583.7284"/><line class="cls-2" x1="773.5" y1="583.7284" x2="870.5" y2="470.7284"/><line class="cls-3" x1="350.5" y1="989.7284" x2="254.5" y2="1040.7284"/><line class="cls-3" x1="773.5" y1="989.7284" x2="870.5" y2="1040.7284"/><line class="cls-3" x1="350.5" y1="989.7284" x2="773.5" y2="989.7284"/><line class="cls-3" x1="255" y1="786.7284" x2="871" y2="786.7284"/><line class="cls-3" x1="488.5" y1="584.2284" x2="488.5" y2="990.2284"/><line class="cls-4" x1="488.5" y1="584.7284" x2="443.5" y2="470.7284"/><line class="cls-3" x1="635.5" y1="585.7284" x2="672.5" y2="470.7284"/><line class="cls-3" x1="397.5" y1="584.2284" x2="397.5" y2="990.2284"/><line class="cls-3" x1="374.5" y1="583.2284" x2="374.5" y2="989.2284"/><line class="cls-3" x1="419.6912" y1="585.6696" x2="419.6912" y2="991.5682"/><line class="cls-3" x1="466.1912" y1="585.6696" x2="466.1912" y2="991.6696"/><line class="cls-3" x1="443.1912" y1="584.6696" x2="443.1912" y2="990.6696"/><line class="cls-3" x1="750.9412" y1="584.949" x2="750.9412" y2="990.949"/><line class="cls-3" x1="659.9412" y1="584.949" x2="659.9412" y2="990.949"/><line class="cls-3" x1="636.9412" y1="583.949" x2="636.9412" y2="989.949"/><line class="cls-3" x1="682.1324" y1="586.3901" x2="682.1324" y2="992.2888"/><line class="cls-3" x1="728.6324" y1="586.3901" x2="728.6324" y2="992.3901"/><line class="cls-3" x1="705.6324" y1="585.3901" x2="705.6324" y2="991.3901"/><line class="cls-3" x1="514.8456" y1="585.9996" x2="514.8456" y2="991.8983"/><line class="cls-3" x1="561.3456" y1="585.9996" x2="561.3456" y2="991.9996"/><line class="cls-3" x1="538.3456" y1="584.9996" x2="538.3456" y2="990.9996"/><line class="cls-3" x1="583.5368" y1="583.4408" x2="583.5368" y2="989.3395"/><line class="cls-3" x1="608.5" y1="583.2284" x2="608.5" y2="989.2284"/><line class="cls-3" x1="350" y1="966.7284" x2="773" y2="966.7284"/><line class="cls-3" x1="351.6912" y1="943.6696" x2="774.6912" y2="943.6696"/><line class="cls-3" x1="351.1912" y1="920.6696" x2="774.1912" y2="920.6696"/><line class="cls-3" x1="349.0956" y1="899.699" x2="772.0956" y2="899.699"/><line class="cls-3" x1="348.5956" y1="876.699" x2="771.5956" y2="876.699"/><line class="cls-3" x1="350.2868" y1="853.6401" x2="773.2868" y2="853.6401"/><line class="cls-3" x1="349.7868" y1="830.6401" x2="772.7868" y2="830.6401"/><line class="cls-3" x1="350" y1="808.7284" x2="773" y2="808.7284"/><line class="cls-3" x1="351.2978" y1="765.1696" x2="774.2978" y2="765.1696"/><line class="cls-3" x1="352.989" y1="742.1107" x2="775.989" y2="742.1107"/><line class="cls-3" x1="352.489" y1="719.1107" x2="775.489" y2="719.1107"/><line class="cls-3" x1="350.3934" y1="698.1401" x2="773.3934" y2="698.1401"/><line class="cls-3" x1="349.8934" y1="675.1401" x2="772.8934" y2="675.1401"/><line class="cls-3" x1="351.5846" y1="652.0813" x2="774.5846" y2="652.0813"/><line class="cls-3" x1="351.0846" y1="629.0813" x2="774.0846" y2="629.0813"/><line class="cls-3" x1="351.2978" y1="607.1696" x2="774.2978" y2="607.1696"/><text class="cls-5" transform="translate(316.7656 1785.3934) scale(1.5895 1)">Start</text><text class="cls-6" transform="translate(521 2030.8378) scale(2.2674 1)">Exit</text><line class="cls-7" x1="332.2585" y1="562.8796" x2="332.2585" y2="995.7284"/><line class="cls-7" x1="794.0015" y1="562.8796" x2="794.0015" y2="1000.7284"/><line class="cls-7" x1="794" y1="562.8796" x2="332.2585" y2="562.8796"/><line class="cls-8" x1="314" y1="542.6556" x2="314" y2="1006.7284"/><line class="cls-8" x1="812.0016" y1="542.6556" x2="812.0016" y2="1010.7284"/><line class="cls-8" x1="812" y1="542.6556" x2="314" y2="542.6556"/><line class="cls-9" x1="294" y1="516.2284" x2="294" y2="1019.7284"/><line class="cls-9" x1="833" y1="516.2284" x2="833" y2="1020.7284"/><line class="cls-9" x1="833" y1="516.2284" x2="294" y2="516.2284"/><line class="cls-10" x1="274" y1="494.2284" x2="274" y2="1029.7284"/><line class="cls-10" x1="852" y1="494.2284" x2="852" y2="1029.7284"/><line class="cls-10" x1="850.5" y1="493.7285" x2="274.5" y2="493.7287"/><line class="cls-11" x1="895" y1="446.2284" x2="1124" y2="0.2284"/><line class="cls-11" x1="0.5" y1="0.7284" x2="226.5" y2="446.7284"/><line class="cls-11" x1="254.5" y1="651.7284" x2="349.5" y2="674.7284"/><line class="cls-3" x1="352.5" y1="718.7284" x2="254.5" y2="707.7284"/><line class="cls-3" x1="351.5" y1="764.7284" x2="254.5" y2="761.7284"/><line class="cls-3" x1="352.5" y1="741.7284" x2="254.5" y2="735.7284"/><line class="cls-3" x1="350.5" y1="697.7284" x2="254.5" y2="681.7284"/><line class="cls-3" x1="351.5" y1="651.7284" x2="254.5" y2="619.7284"/><line class="cls-3" x1="351.5" y1="628.7284" x2="254.5" y2="582.7284"/><line class="cls-3" x1="351.5" y1="606.7284" x2="254.5" y2="527.7284"/><line class="cls-3" x1="774.5" y1="764.7284" x2="870.5" y2="761.7284"/><line class="cls-3" x1="775.5" y1="741.7284" x2="870.5" y2="731.7284"/><line class="cls-3" x1="775.5" y1="718.7284" x2="870.5" y2="697.7284"/><line class="cls-3" x1="773.5" y1="697.7284" x2="870.5" y2="663.7284"/><line class="cls-3" x1="772.5" y1="674.7284" x2="870.5" y2="628.7284"/><line class="cls-3" x1="774.5" y1="651.7284" x2="870.5" y2="595.7284"/><line class="cls-3" x1="774.5" y1="628.7284" x2="870.5" y2="554.7284"/><line class="cls-3" x1="774.5" y1="606.7284" x2="870.5" y2="516.7284"/><line class="cls-3" x1="349.5" y1="808.7284" x2="254.5" y2="815.7284"/><line class="cls-3" x1="349.5" y1="830.7284" x2="254.5" y2="848.7284"/><line class="cls-3" x1="350.5" y1="853.7284" x2="254.5" y2="876.7284"/><line class="cls-3" x1="348.5" y1="876.7284" x2="254.5" y2="905.7284"/><line class="cls-3" x1="349.5" y1="899.7284" x2="254.5" y2="933.7284"/><line class="cls-3" x1="351.5" y1="920.7284" x2="254.5" y2="958.7284"/><line class="cls-3" x1="351.5" y1="943.7284" x2="254.5" y2="988.7284"/><line class="cls-3" x1="349.5" y1="966.7284" x2="254.5" y2="1014.7284"/><line class="cls-3" x1="772.5" y1="808.7284" x2="870.5" y2="811.7284"/><line class="cls-3" x1="772.5" y1="830.7284" x2="870.5" y2="839.7284"/><line class="cls-3" x1="773.5" y1="853.7284" x2="870.5" y2="864.7284"/><line class="cls-3" x1="771.5" y1="876.7284" x2="870.5" y2="890.7284"/><line class="cls-3" x1="772.5" y1="899.7284" x2="870.5" y2="920.7284"/><line class="cls-3" x1="774.5" y1="920.7284" x2="870.5" y2="948.7284"/><line class="cls-3" x1="774.5" y1="943.7284" x2="870.5" y2="978.7284"/><line class="cls-3" x1="772.5" y1="966.7284" x2="870.5" y2="1010.7284"/><line class="cls-12" x1="561.5" y1="585.7284" x2="560.5" y2="470.7284"/><line class="cls-12" x1="538" y1="585.2284" x2="515" y2="470.2284"/><line class="cls-12" x1="515" y1="586.2284" x2="480" y2="470.2284"/><line class="cls-12" x1="583.5" y1="583.7284" x2="601.5" y2="470.7284"/><line class="cls-12" x1="608.5" y1="583.7284" x2="636.5" y2="470.7284"/><line class="cls-12" x1="659.5" y1="584.7284" x2="705.5" y2="470.7284"/><line class="cls-12" x1="682.5" y1="586.7284" x2="744.5" y2="470.7284"/><line class="cls-12" x1="705.5" y1="585.7284" x2="775.5" y2="470.7284"/><line class="cls-12" x1="750.5" y1="584.7284" x2="842.5" y2="467.7284"/><line class="cls-12" x1="728.5" y1="586.7284" x2="811.5" y2="470.7284"/><line class="cls-12" x1="466.5" y1="585.7284" x2="406.5" y2="470.7284"/><line class="cls-12" x1="443.5" y1="584.7284" x2="374.5" y2="470.7284"/><line class="cls-12" x1="419.5" y1="585.7284" x2="348.5" y2="470.7284"/><line class="cls-12" x1="397.5" y1="584.7284" x2="320.5" y2="470.7284"/><line class="cls-12" x1="374.5" y1="583.7284" x2="286.5" y2="470.7284"/><text class="cls-13" transform="translate(397.707 1948.3241) scale(1.2203 1)">Leaderboard</text><text class="cls-14" transform="translate(460 1994.3397) scale(1.5809 1)">Settings</text><text class="cls-15" transform="translate(169 1597.0799) scale(0.7919 1)">Paper Soccer</text></g></svg>
